<svg xmlns="http://www.w3.org/2000/svg" viewBox="0 0 840 440" width="840" height="440" role="img" aria-label="Log-scaled scatterplot of MFA issues by category">
<rect x="0" y="0" width="100%" height="100%" fill="white" />
<line x1="90" y1="60" x2="90" y2="330" stroke="#4b5563" stroke-width="1.5" />
<line x1="90" y1="330" x2="750" y2="330" stroke="#4b5563" stroke-width="1.5" />
<line x1="90" y1="330.0" x2="750" y2="330.0" stroke="#e5e7eb" stroke-width="1" />
<text x="78" y="334.0" text-anchor="end" font-size="12" fill="#6b7280">1</text>
<line x1="90" y1="292.70652793260643" x2="750" y2="292.70652793260643" stroke="#e5e7eb" stroke-width="1" />
<text x="78" y="296.70652793260643" text-anchor="end" font-size="12" fill="#6b7280">2</text>
<line x1="90" y1="243.40723945082175" x2="750" y2="243.40723945082175" stroke="#e5e7eb" stroke-width="1" />
<text x="78" y="247.40723945082175" text-anchor="end" font-size="12" fill="#6b7280">5</text>
<line x1="90" y1="206.11376738342815" x2="750" y2="206.11376738342815" stroke="#e5e7eb" stroke-width="1" />
<text x="78" y="210.11376738342815" text-anchor="end" font-size="12" fill="#6b7280">10</text>
<line x1="90" y1="168.82029531603456" x2="750" y2="168.82029531603456" stroke="#e5e7eb" stroke-width="1" />
<text x="78" y="172.82029531603456" text-anchor="end" font-size="12" fill="#6b7280">20</text>
<line x1="90" y1="119.5210068342499" x2="750" y2="119.5210068342499" stroke="#e5e7eb" stroke-width="1" />
<text x="78" y="123.5210068342499" text-anchor="end" font-size="12" fill="#6b7280">50</text>
<line x1="90" y1="90.971558154143" x2="750" y2="90.971558154143" stroke="#e5e7eb" stroke-width="1" />
<text x="78" y="94.971558154143" text-anchor="end" font-size="12" fill="#6b7280">85</text>
<circle cx="90.0" cy="330" r="12.0" fill="#bfdbfe" stroke="#2563eb" stroke-width="2" fill-opacity="0.9" />
<text x="90.0" y="334" text-anchor="middle" font-size="13" font-weight="600" fill="#111827">0</text>
<text x="90.0" y="354" text-anchor="middle" font-size="12" fill="#374151"><tspan x="90.0" dy="0">Lack of MFA</tspan><tspan x="90.0" dy="14">options</tspan></text>
<circle cx="222.0" cy="330" r="12.0" fill="#bfdbfe" stroke="#2563eb" stroke-width="2" fill-opacity="0.9" />
<text x="222.0" y="334" text-anchor="middle" font-size="13" font-weight="600" fill="#111827">0</text>
<text x="222.0" y="354" text-anchor="middle" font-size="12" fill="#374151"><tspan x="222.0" dy="0">Failed security</tspan><tspan x="222.0" dy="14">checks</tspan></text>
<circle cx="354.0" cy="330" r="12.0" fill="#bfdbfe" stroke="#2563eb" stroke-width="2" fill-opacity="0.9" />
<text x="354.0" y="334" text-anchor="middle" font-size="13" font-weight="600" fill="#111827">0</text>
<text x="354.0" y="354" text-anchor="middle" font-size="12" fill="#374151"><tspan x="354.0" dy="0">Logins without</tspan><tspan x="354.0" dy="14">acceptable MFA</tspan><tspan x="354.0" dy="14">signal</tspan></text>
<circle cx="486.0" cy="90.971558154143" r="58.09772228646443" fill="#bfdbfe" stroke="#2563eb" stroke-width="2" fill-opacity="0.9" />
<text x="486.0" y="94.971558154143" text-anchor="middle" font-size="13" font-weight="600" fill="#111827">85</text>
<text x="486.0" y="354" text-anchor="middle" font-size="12" fill="#374151"><tspan x="486.0" dy="0">Elevated</tspan><tspan x="486.0" dy="14">permissions</tspan></text>
<circle cx="618.0" cy="330" r="12.0" fill="#bfdbfe" stroke="#2563eb" stroke-width="2" fill-opacity="0.9" />
<text x="618.0" y="334" text-anchor="middle" font-size="13" font-weight="600" fill="#111827">0</text>
<text x="618.0" y="354" text-anchor="middle" font-size="12" fill="#374151"><tspan x="618.0" dy="0">Waive MFA</tspan><tspan x="618.0" dy="14">permission</tspan><tspan x="618.0" dy="14">instances</tspan></text>
<circle cx="750.0" cy="330" r="12.0" fill="#bfdbfe" stroke="#2563eb" stroke-width="2" fill-opacity="0.9" />
<text x="750.0" y="334" text-anchor="middle" font-size="13" font-weight="600" fill="#111827">0</text>
<text x="750.0" y="354" text-anchor="middle" font-size="12" fill="#374151"><tspan x="750.0" dy="0">Users uncovered</tspan><tspan x="750.0" dy="14">if UI MFA off</tspan></text>
<text x="26" y="195.0" text-anchor="middle" font-size="13" fill="#374151" transform="rotate(-90 26 195.0)">Occurrences (count, log scale)</text>
<text x="420.0" y="422" text-anchor="middle" font-size="13" fill="#374151">MFA issue category</text>
</svg>